<?xml version="1.0" standalone="no"?>
<!DOCTYPE svg PUBLIC "-//W3C//DTD SVG 20010904//EN"
 "http://www.w3.org/TR/2001/REC-SVG-20010904/DTD/svg10.dtd">
<svg version="1.0" xmlns="http://www.w3.org/2000/svg"
 width="460.000000pt" height="460.000000pt" viewBox="0 0 460.000000 460.000000"
 preserveAspectRatio="xMidYMid meet">

<g transform="translate(0.000000,460.000000) scale(0.100000,-0.100000)"
fill="#000000" stroke="none">
<path d="M1564 3011 c-14 -14 2 -32 39 -42 110 -30 132 -45 147 -98 5 -21 10
-306 11 -673 2 -724 2 -716 -74 -784 -47 -43 -79 -42 -134 6 -36 32 -41 34
-61 21 -18 -11 -41 -104 -31 -124 31 -55 163 -37 262 37 37 27 112 132 143
200 37 82 43 194 44 791 0 409 3 546 13 565 6 14 32 35 57 48 25 12 45 29 45
37 0 13 -35 15 -228 17 -126 2 -230 1 -233 -1z"/>
<path d="M3948 3013 c-125 -3 -148 -6 -148 -19 0 -9 20 -24 48 -35 70 -30 77
-34 80 -57 4 -28 -69 -251 -130 -397 -28 -66 -59 -146 -69 -177 -11 -32 -37
-95 -58 -140 -21 -46 -46 -103 -55 -128 -33 -85 -81 -175 -95 -175 -8 0 -18 7
-22 15 -23 39 -99 212 -105 237 -4 15 -31 79 -61 141 -29 63 -53 124 -53 137
0 13 18 63 41 112 23 48 52 117 65 153 14 36 45 108 70 161 42 88 50 98 91
118 76 37 54 46 -122 49 -159 3 -193 -4 -167 -30 7 -7 31 -19 55 -28 37 -14
42 -20 45 -49 3 -30 -38 -168 -58 -196 -4 -5 -13 -28 -19 -50 -15 -50 -44
-115 -51 -115 -7 0 -60 107 -60 121 0 6 -18 52 -40 101 -23 53 -40 106 -40
128 0 32 5 41 40 64 70 46 52 51 -178 50 -243 -1 -232 0 -232 -19 0 -8 17 -19
43 -26 91 -25 105 -30 120 -47 17 -18 81 -159 144 -312 19 -47 47 -112 62
-145 60 -128 60 -122 12 -226 -24 -50 -51 -115 -61 -143 -10 -28 -30 -75 -44
-103 -14 -29 -26 -57 -26 -62 0 -5 -7 -14 -15 -21 -11 -10 -17 -6 -28 22 -8
18 -38 81 -66 140 -28 58 -51 110 -51 116 0 5 -22 57 -49 115 -27 57 -52 120
-56 138 -4 18 -11 40 -16 49 -17 31 -91 202 -111 258 -11 31 -26 73 -34 92 -7
19 -13 50 -14 67 0 27 6 35 33 49 36 19 47 32 41 48 -6 15 -432 16 -438 0 -7
-19 7 -30 59 -44 45 -13 125 -70 125 -90 0 -5 20 -50 44 -102 24 -51 53 -120
66 -153 12 -33 44 -109 70 -170 26 -60 58 -137 70 -170 13 -33 40 -96 60 -140
21 -44 43 -98 50 -120 7 -22 28 -74 47 -115 50 -109 50 -111 64 -155 6 -22 25
-64 41 -92 32 -57 62 -69 73 -30 4 12 17 45 30 72 61 135 75 166 75 174 0 9
25 68 65 156 55 121 65 145 65 157 0 7 4 19 9 27 10 15 59 -80 106 -204 12
-33 41 -98 63 -145 22 -47 45 -102 52 -123 18 -56 60 -127 76 -127 29 0 79
104 264 545 21 50 54 123 74 162 19 40 39 85 42 100 4 16 29 75 56 132 26 56
48 108 48 115 0 6 27 67 60 134 33 68 60 128 60 132 0 5 20 23 46 40 25 18 43
37 41 43 -4 14 -18 14 -219 10z"/>
<path d="M274 2998 c-9 -15 6 -26 43 -33 52 -9 90 -31 110 -62 17 -25 18 -68
18 -563 0 -563 -1 -581 -46 -628 -11 -12 -30 -22 -42 -22 -26 0 -54 -16 -45
-26 11 -10 483 -8 481 2 -1 5 -32 18 -69 29 -79 24 -99 46 -114 124 -11 58
-14 409 -4 435 3 9 11 16 16 16 11 0 122 -111 408 -408 l194 -202 154 0 c118
0 153 3 150 13 -3 6 -25 17 -49 23 -74 19 -120 48 -206 130 -123 119 -523 541
-523 552 0 10 348 331 454 418 32 27 80 67 107 89 26 23 74 52 106 64 67 28
85 40 77 52 -7 12 -441 12 -449 0 -7 -12 7 -21 59 -41 52 -20 63 -39 47 -78
-14 -33 -76 -101 -151 -166 -25 -21 -70 -61 -100 -90 -30 -28 -91 -82 -135
-121 -43 -38 -94 -85 -113 -103 -22 -21 -38 -30 -45 -23 -13 13 -4 488 11 523
6 14 31 39 56 53 83 49 69 53 -175 52 -121 -1 -223 -5 -225 -9z"/>
<path d="M4299 2982 c-52 -27 -88 -55 -89 -69 0 -9 11 -6 33 7 39 24 113 26
145 4 16 -11 22 -25 22 -54 0 -43 -27 -82 -84 -121 -20 -13 -36 -27 -36 -31 0
-5 19 -8 43 -8 55 0 84 -21 97 -71 23 -86 -11 -168 -84 -203 -45 -21 -83 -20
-129 3 -40 21 -48 14 -17 -14 29 -26 110 -31 164 -11 57 22 121 91 136 147 24
87 -5 154 -79 186 l-33 14 23 27 c13 15 27 29 31 32 11 9 28 59 28 84 0 32
-60 86 -101 91 -22 3 -47 -2 -70 -13z"/>
</g>
</svg>
